<?xml version="1.0" standalone="no"?>
<!DOCTYPE svg PUBLIC "-//W3C//DTD SVG 20010904//EN"
 "http://www.w3.org/TR/2001/REC-SVG-20010904/DTD/svg10.dtd">
<svg version="1.0" xmlns="http://www.w3.org/2000/svg"
 width="298.000000pt" height="298.000000pt" viewBox="0 0 298.000000 298.000000"
 preserveAspectRatio="xMidYMid meet">
<metadata>
Created by potrace 1.11, written by Peter Selinger 2001-2013
</metadata>
<g transform="translate(0.000000,298.000000) scale(0.100000,-0.100000)"
fill="#000000" stroke="none">
<path d="M0 1490 l0 -1490 1490 0 1490 0 0 1490 0 1490 -1490 0 -1490 0 0
-1490z m1650 510 c0 -297 -7 -279 92 -239 29 12 64 25 78 29 14 5 88 31 164
59 107 40 141 49 148 39 4 -7 19 -51 34 -98 14 -47 37 -119 50 -160 13 -41 24
-79 24 -85 0 -14 -27 -23 -265 -90 -110 -31 -203 -60 -208 -64 -6 -6 41 -74
150 -217 12 -16 53 -71 92 -122 39 -51 71 -97 71 -102 0 -13 -281 -221 -293
-217 -7 2 -75 101 -152 220 -77 119 -145 217 -151 217 -6 0 -76 -95 -155 -211
-79 -116 -150 -214 -157 -216 -7 -3 -43 17 -81 43 -37 27 -100 72 -139 99 -39
28 -71 54 -72 59 0 5 33 52 73 105 112 148 208 273 234 305 13 16 20 32 16 36
-4 5 -64 24 -133 44 -118 34 -201 59 -297 88 -24 7 -45 17 -47 23 -2 6 2 29 9
50 7 22 32 100 55 174 48 155 24 146 210 76 234 -88 283 -105 297 -105 10 0
13 48 13 253 0 140 3 257 7 260 3 4 80 7 170 7 l163 0 0 -260z"/>
</g>
</svg>
